<svg xmlns="http://www.w3.org/2000/svg" width="920" height="390" viewBox="0 0 920 390">
  <rect width="920" height="390" fill="#f6f8fa"/>
  <rect x="24" y="22" width="872" height="346" rx="10" fill="#ffffff" stroke="#d0d7de"/>
  <text x="54" y="68" font-family="Arial, sans-serif" font-size="24" font-weight="700" fill="#24292f">GitHub에서 ZIP 다운로드</text>
  <text x="54" y="102" font-family="Arial, sans-serif" font-size="16" fill="#57606a">1. 초록색 Code 버튼을 누릅니다.</text>
  <text x="54" y="128" font-family="Arial, sans-serif" font-size="16" fill="#57606a">2. Download ZIP을 누릅니다.</text>

  <rect x="60" y="162" width="360" height="166" rx="8" fill="#f6f8fa" stroke="#d0d7de"/>
  <rect x="82" y="190" width="110" height="18" rx="4" fill="#d8dee4"/>
  <rect x="82" y="224" width="280" height="14" rx="4" fill="#d8dee4"/>
  <rect x="82" y="252" width="245" height="14" rx="4" fill="#d8dee4"/>
  <rect x="82" y="280" width="295" height="14" rx="4" fill="#d8dee4"/>

  <rect x="562" y="104" width="146" height="44" rx="8" fill="#1f883d"/>
  <text x="606" y="132" font-family="Arial, sans-serif" font-size="18" font-weight="700" fill="#ffffff">Code</text>
  <circle cx="635" cy="126" r="56" fill="none" stroke="#cf222e" stroke-width="8"/>
  <text x="708" y="106" font-family="Arial, sans-serif" font-size="34" font-weight="700" fill="#cf222e">1</text>

  <rect x="560" y="154" width="226" height="150" rx="8" fill="#ffffff" stroke="#d0d7de"/>
  <text x="582" y="184" font-family="Arial, sans-serif" font-size="14" fill="#24292f">Clone</text>
  <rect x="582" y="204" width="160" height="22" rx="5" fill="#f6f8fa" stroke="#d0d7de"/>
  <text x="594" y="221" font-family="Arial, sans-serif" font-size="12" fill="#57606a">https://github.com/...</text>
  <line x1="560" y1="238" x2="786" y2="238" stroke="#d0d7de"/>
  <text x="594" y="270" font-family="Arial, sans-serif" font-size="16" font-weight="700" fill="#24292f">Download ZIP</text>
  <circle cx="660" cy="264" r="42" fill="none" stroke="#cf222e" stroke-width="8"/>
  <text x="722" y="280" font-family="Arial, sans-serif" font-size="34" font-weight="700" fill="#cf222e">2</text>
</svg>
